<svg id="Layer_1" data-name="Layer 1" xmlns="http://www.w3.org/2000/svg" viewBox="0 0 1024 1024"><path d="M655.6,304.58a45.12,45.12,0,0,0,0,63.81c79.31,79.31,79.31,207.89,0,287.2s-207.89,79.31-287.2,0-79.31-207.89,0-287.2a45.13,45.13,0,0,0-63.81-63.81C190,419.13,190,604.86,304.57,719.42s300.28,114.57,414.84,0,114.57-300.28,0-414.84l0,0a45.12,45.12,0,0,0-63.81,0Z"/><path d="M512,507.48a45.36,45.36,0,0,0,45.13-45.13V263.78a45.13,45.13,0,0,0-90.26,0V462.35A45.36,45.36,0,0,0,512,507.48Z"/><path d="M512,1012C236.3,1012,12,787.7,12,512S236.3,12,512,12s500,224.3,500,500S787.7,1012,512,1012Zm0-926.83C276.65,85.17,85.17,276.65,85.17,512S276.65,938.83,512,938.83,938.83,747.36,938.83,512,747.35,85.17,512,85.17Z"/></svg>