<svg id="Layer_1" data-name="Layer 1" xmlns="http://www.w3.org/2000/svg" viewBox="0 0 256 256"><path d="M163.25,77.36a11.11,11.11,0,0,0,0,15.71,50,50,0,1,1-70.71,0A11.11,11.11,0,0,0,76.82,77.36a72.23,72.23,0,1,0,102.14,0h0a11.11,11.11,0,0,0-15.71,0Z"/><path d="M127.89,127.32A11.16,11.16,0,0,0,139,116.21V67.32a11.11,11.11,0,0,0-22.22,0v48.89A11.17,11.17,0,0,0,127.89,127.32Z"/><path d="M127.89,251.54A123.11,123.11,0,1,1,251,128.43,123.24,123.24,0,0,1,127.89,251.54Zm0-228.2A105.09,105.09,0,1,0,233,128.43,105.21,105.21,0,0,0,127.89,23.34Z"/></svg>